<?xml version="1.0" encoding="UTF-8"?>
<svg width="389px" height="383px" viewBox="0 0 389 383" version="1.1" xmlns="http://www.w3.org/2000/svg" xmlns:xlink="http://www.w3.org/1999/xlink">
    <!-- Generator: Sketch 57.1 (83088) - https://sketch.com -->
    <title>favico 2</title>
    <desc>Created with Sketch.</desc>
    <g id="Page-1" stroke="none" stroke-width="1" fill="none" fill-rule="evenodd">
        <g id="favico" fill-rule="nonzero">
            <g id="Group" transform="translate(194.100000, 191.900000) scale(-1, 1) rotate(-180.000000) translate(-194.100000, -191.900000) translate(0.100000, 0.900000)">
                <path d="M132.9,378.3 C119.9,374.1 97.4,363 91.1,357.9 C82.9,351.1 80.9,348.8 82.2,347.4 C83.6,345.9 85.5,346.8 93.1,352.4 C95.7,354.3 100,356.4 102.6,357 C105.2,357.7 109.3,359.1 111.7,360.1 C114.1,361.1 117.3,361.9 118.9,361.9 C124.3,361.9 127.8,363 127.2,364.6 C126.7,365.8 127.1,366 128.8,365.4 C130.2,365 131.1,365.2 131.5,366.3 C131.8,367.1 132.7,367.5 133.5,367.2 C134.3,366.9 134.9,367.1 134.9,367.7 C134.9,368.2 136.2,368.9 137.7,369.2 C139.2,369.5 141.6,370.9 142.9,372.2 C147,376.1 150.5,378 155.6,378.9 L160.4,379.7 L156.1,379.8 C153.5,379.9 152,380.3 152.4,380.9 C153.7,383.1 143,381.7 132.9,378.3 Z" id="Path" fill="#141259"></path>
                <path d="M251.5,372 C249.1,371.5 248.5,370.8 248.2,368.3 C247.9,365.8 248.3,365 250.4,364.1 C253.8,362.5 255.7,362.6 253.5,364.2 C252.1,365.2 252,366 252.8,368.2 C253.4,369.7 254.5,370.9 255.3,370.9 C256.1,370.9 257.1,371.4 257.4,371.9 C258.1,373 256.1,373 251.5,372 Z" id="Path" fill="#141259"></path>
                <path d="M276.9,367.4 C277.9,366.2 277.9,365.9 276.9,365.9 C276,365.9 276.2,365.2 277.4,363.9 C278.4,362.8 279.7,361.9 280.4,361.9 C281.9,361.9 285.4,358.1 284.6,357.3 C283.8,356.5 274.9,363.8 274.9,365.2 C274.9,365.8 274.6,365.9 274.3,365.6 C273.9,365.3 272.7,365.6 271.5,366.4 C270.4,367.2 268.9,367.9 268.2,367.9 C266.6,367.9 267.6,364.9 269.8,363 C271.2,361.9 270.9,361.7 267.8,362.1 C265.5,362.3 264.3,362.1 264.5,361.4 C264.8,360.8 263.1,360.3 260.4,360.1 C257.6,360 256,360.3 256.4,360.9 C257.2,362.2 255.9,362.2 252,360.8 C250.3,360.2 248.9,359.3 248.9,358.8 C248.9,357.3 245.9,357.8 245.3,359.4 C244.6,361 241.9,361.5 241.9,360 C241.9,359.4 242.5,358.7 243.2,358.2 C244,357.7 243.4,357.2 241.4,356.9 C239.6,356.5 238.5,355.7 238.7,355 C238.9,354 238.1,353.8 235.4,354.2 C233.5,354.5 231.9,354.4 231.9,353.8 C231.9,352.2 229.4,352.8 227.6,354.9 C225.9,356.9 225.9,357 231,356.7 C238.4,356.3 238.5,358.4 231.2,359.9 C223.1,361.5 217.5,363.2 216.8,364.2 C216,365.3 207.8,365.4 201.4,364.4 C196,363.6 187.4,360.1 183.1,357.1 C181.6,356 177.6,354.1 174.2,352.9 C168.8,351 167.9,350.3 167.3,347.6 C166.3,343 168.7,341.6 174.5,343.4 L179,344.7 L180.9,340.9 C183.2,336.4 184.7,335.3 186.2,336.8 C186.8,337.4 188.1,337.9 189.1,337.9 C190.1,337.9 191.4,339 192,340.3 C192.6,341.6 194.1,343 195.2,343.3 C197.2,343.8 197.2,343.9 195.5,345.8 C193.3,348.2 194.3,350 198.9,351.9 C200.6,352.6 201.9,353.5 201.9,354 C201.9,355.6 206.7,356.9 209.1,356 C211.4,355.1 211.3,355.1 208.4,353.9 C204.1,352.3 203,351.1 203.6,348.8 C204.5,345.6 207.5,344.5 212.4,345.9 C215.4,346.7 217.3,346.8 218.6,346.1 C220.9,344.8 219.3,344.1 212.9,343.7 C209.2,343.5 208.5,343.1 208.7,341.6 C208.9,340.2 208.4,339.9 206.2,340.1 C203.9,340.3 203.3,340 203.1,338.1 C202.7,335.5 200.2,334 196.3,334 C194.7,334 190,333.8 185.8,333.5 C179.6,333 177.9,333.2 176.8,334.5 C175.7,335.8 175.8,336.2 177.2,337 C179.6,338.4 178.3,340.7 175.3,340.1 C172.9,339.7 172.5,339.1 172.8,335.3 C173,333.5 172.3,333.1 168.4,332.7 C165.2,332.3 163.1,331.4 161.4,329.5 C160.1,328.1 158.2,326.9 157.2,326.9 C156.1,326.9 153.5,326 151.4,324.9 C149.2,323.7 146.6,323 145.7,323.3 C144.7,323.5 143.9,323.3 143.9,322.8 C143.9,322.3 142.1,321.9 139.9,321.9 C135.2,321.9 134.8,320.9 138.8,319.1 C142.6,317.4 143.2,315.6 141.4,311.2 L139.9,307.6 L131.1,308.1 C120.9,308.7 119.9,308.5 119.9,305.5 C119.9,304.2 118.7,301.4 117.3,299.3 C115.2,296.2 114.9,295.1 115.8,293.7 C116.5,292.6 116.7,291.4 116.4,290.9 C116,290.3 117.1,289.9 118.7,289.9 C120.3,289.9 122.2,289.3 122.8,288.5 C123.7,287.4 123.3,286.6 120.9,284.5 C119.1,283.1 117.2,281.9 116.5,281.9 C113.9,281.9 109.9,277.7 108.9,273.9 C108.2,271.2 106.9,269.5 104.3,268 C102.4,266.8 100.2,265.9 99.5,265.9 C98.7,265.9 96.6,263.8 94.8,261.3 C92.9,258.8 90.2,255.6 88.7,254.2 C87.1,252.7 85.9,251.1 85.9,250.6 C85.9,250 85.1,248.7 84.2,247.7 C83,246.3 82.5,243.9 82.5,238 C82.4,231.6 82,229.5 80.3,227.2 C77.2,222.9 77.9,216.2 81.9,212.7 C83.5,211.2 84.9,209.6 84.9,209.3 C84.9,209 86,207.4 87.4,205.7 C88.8,204.1 89.9,202.2 89.9,201.5 C89.9,200.2 97.1,193.8 102.2,190.4 C104.7,188.8 105.5,188.7 110.5,189.9 C114.7,190.9 117.1,191 120.8,190.1 C125.1,189.1 126.2,189.3 131.5,191.4 C135.1,192.9 139.4,193.9 142.6,193.9 C147.3,193.9 148,193.6 150,190.8 C152,188 152.6,187.7 156.3,188.2 C159.7,188.7 160.8,188.4 163,186.3 C165.3,184.1 165.6,183.2 165.2,179.1 C164.9,176.5 164.3,173.2 163.7,171.7 C162.4,168.3 164.6,164.3 169.6,160.9 C173.7,158.1 178.2,149.2 178,144.1 C178,142.2 178.6,139.7 179.5,138.5 C180.6,136.7 180.7,135.5 180,133.5 C179.4,132.1 178.5,130.9 177.9,130.9 C176.4,130.9 172.9,122.4 172.9,118.8 C172.9,117.1 173.8,114.5 174.9,112.9 C176,111.2 177.8,108.5 179,106.8 C180.1,105.2 181.4,101.7 181.8,99.1 C182.8,93.1 185,88.5 189.4,83.1 C191.8,80.1 192.9,77.7 192.9,75.4 C192.9,70.4 194.7,69.5 202.1,70.7 C205.6,71.3 210.2,71.8 212.5,71.7 C217.1,71.6 222.5,74.6 227.7,80.3 C229.6,82.3 231.4,83.9 231.9,83.9 C232.8,83.9 235.3,89.7 235.4,91.8 C235.4,92.6 237.2,93.8 239.4,94.6 C244.5,96.3 246.8,100.6 245,105.4 C244.4,107.1 243.9,108.8 243.9,109.1 C243.9,109.9 254.2,116.5 257.6,117.8 C259.3,118.5 261.4,119.8 262.2,120.7 C263.9,122.7 265.1,136.3 263.6,137.8 C263.1,138.3 262.5,142.1 262.3,146.1 C262,152.6 262.3,153.9 264.6,157.4 C269.2,164.4 277,172.8 281.4,175.4 C288.5,179.5 293.3,185.9 297.8,197.3 C302.4,208.7 303,212.5 300.2,211 C297.4,209.5 284.8,205.9 282.3,205.9 C280.5,205.9 276.9,209.5 276.9,211.3 C276.9,212.3 288.1,216.8 292,217.3 C294.2,217.6 302.9,223.3 302.9,224.4 C302.9,225.1 304.3,226.1 306.1,226.4 C309.4,227.2 315.9,233.2 315.9,235.5 C315.9,236.3 316.5,236.9 317.3,236.9 C318,236.9 319.2,238.3 319.9,239.9 C321,242.5 320.9,243.2 319.4,244.9 C318.4,246 317,246.9 316.2,246.9 C314.1,246.9 309.7,251.7 310.5,253.2 C310.9,253.8 309.8,253.1 308.2,251.6 C305.7,249.3 304.4,248.8 301.3,249.1 C298.1,249.3 297.3,249.8 297.1,251.7 C296.9,253.1 296.2,253.9 295.1,253.7 C294.2,253.5 293.3,254.2 293.1,255.2 C292.9,256.2 291.2,258.6 289.4,260.4 C287.6,262.3 285.9,264.7 285.6,265.8 C284.6,269.9 290.6,269.1 292.9,264.9 C293.5,263.8 296.3,261.7 299.1,260.3 C303.5,258.1 304.6,257.9 306.8,258.9 C309.1,259.9 309.6,259.8 311.4,257.6 C313.9,254.6 319.9,253.1 327.2,253.7 C332.8,254.1 332.9,254.1 337.2,249.8 C339.5,247.4 342.1,244.2 342.8,242.7 C343.8,240.7 345,239.9 346.9,239.9 C349.3,239.9 349.6,239.3 351.6,231.7 C352.8,227.1 355.1,219.4 356.8,214.4 C358.4,209.5 360,204.3 360.3,202.9 C361,199.9 362.6,197.3 363.3,198 C364.5,199.2 365.3,205.1 365.4,213.6 C365.5,218.6 366,223.3 366.6,224.1 C367.2,224.8 368.3,227.4 369,229.9 C369.7,232.4 370.6,234.8 371.1,235.4 C371.5,235.9 371.9,237.5 371.9,238.9 C371.9,240.8 372.7,241.9 374.4,242.7 C376.5,243.7 376.9,243.6 376.9,242.1 C376.9,241.2 377.9,238.4 379,235.9 C380.2,233.4 381.6,229.5 382.3,227.2 C383.1,224 383.7,223.2 384.8,223.8 C385.9,224.5 385.8,226.3 384,234.7 C376.3,270.4 359.2,302.2 333,329.2 C318.6,344 304.1,355 286.5,364.6 C278.2,369.1 274.6,370.2 276.9,367.4 Z M250.4,315.1 C249.9,314.7 248.9,313.5 248.2,312.3 C247.1,310.3 247.5,310 253.6,307.3 C259.9,304.5 262.6,301.9 261.4,299.9 C260.4,298.4 252.1,298.7 246.3,300.6 C241.5,302.1 240.7,302.1 236.7,300.6 C234.3,299.8 230.1,298.8 227.2,298.4 C224.3,298 221.5,297.1 220.8,296.3 C219.9,295.2 219.9,294.9 220.9,294.9 C221.6,294.9 221.9,294.3 221.6,293.6 C221.3,292.9 222.3,291.2 223.6,289.9 C226,287.6 226.9,287.4 237.1,287.4 C247.7,287.4 248,287.4 248.6,285 C249.3,282.1 246.3,272 244.5,271.3 C243.8,271 241.5,271.4 239.3,272.1 C236.7,273 234.3,273.2 231.9,272.6 C229.2,271.9 226.2,272.3 218.9,274.4 C213.7,275.8 208.4,277.2 207.1,277.6 C204.3,278.3 201.9,276.4 201.9,273.3 C201.9,272.1 201.4,270.7 200.9,270.4 C199.5,269.6 191,272.7 188.4,275 C187.3,275.9 183.7,277.2 180.5,277.8 C173.4,279.1 170.1,281.5 172.3,283.7 C173.5,284.9 173.5,285.5 172.1,287.9 L170.4,290.8 L160.9,290.4 C148.4,289.8 144.2,289.2 138,286.9 C130.6,284.2 122.2,285.8 127.8,288.9 C128.9,289.4 131,289.9 132.6,289.9 C136.3,289.9 141.9,293.4 141.9,295.7 C141.9,298.1 144.6,300.5 148.6,302 C150.3,302.5 151.9,303.9 152.2,305 C152.6,306.6 153.6,306.9 158.1,306.9 C161,306.9 164.7,307.6 166.3,308.4 C170.3,310.5 172.6,310.3 174,307.7 C175.4,305.1 177.6,303.4 183.3,300.4 C190.5,296.8 190.7,292.8 183.8,292.7 C178.8,292.6 178.1,291.7 182,290.3 C186.5,288.6 187.9,288.6 187.9,290.2 C187.9,291 189,292.2 190.4,292.9 C191.9,293.7 192.8,294.8 192.4,295.7 C191.5,298 192.9,299 195.2,297.7 C197.2,296.7 197.3,296.7 196,298.2 C195.3,299.2 194.1,299.9 193.4,299.9 C192.8,299.9 191.2,300.8 189.9,301.9 C188.6,303 187.3,303.9 186.9,303.9 C185.1,303.9 179.7,309.9 180.2,311.4 C180.9,313 183.9,313.5 183.9,311.9 C183.9,311.4 184.6,311.2 185.4,311.5 C186.3,311.9 187.2,311.4 187.5,310.4 C187.9,309.5 190.7,307.5 193.8,306 C197.8,304.1 199.3,302.8 199.1,301.6 C198.8,299.9 207.3,287.9 208.8,287.9 C209.3,287.9 209.9,288.8 210.2,290 C210.5,291.2 211.2,291.8 211.8,291.4 C213.3,290.5 213.2,291.6 211.4,294.3 C210,296.4 210,296.7 211.4,297.3 C212.3,297.6 212.7,298.3 212.4,298.9 C211.5,300.3 217.2,300.2 218.7,298.7 C219.6,297.8 220.2,297.8 221.1,298.7 C221.8,299.4 223.2,299.9 224.2,299.9 C226,299.9 226,300.1 224.7,302.1 C223,304.6 223.8,306.6 228.9,312.2 C231.2,314.7 231.7,314.9 234.6,313.8 C236.5,313.2 237.6,312.2 237.3,311.5 C236.6,309.8 239.4,308.7 242.5,309.5 C244.8,310.1 244.8,310.2 243.2,311.4 C241.2,312.9 242.1,314.4 245.4,315.2 C248.6,316 251.5,315.9 250.4,315.1 Z M282.3,313.9 C285.3,312.8 285.7,310.9 283,310.9 C279.7,310.9 280,308.4 283.5,306 C285.4,304.7 286.9,303 286.9,302.3 C286.9,301.5 287.5,301.2 288.4,301.5 C290,302.2 292.9,300.3 292.9,298.7 C292.9,298.2 292,298.1 290.9,298.4 C288.4,299.2 288.3,297.9 290.8,295.3 C292.6,293.3 294.9,289.5 294.9,288.5 C294.9,288.2 293.5,287.9 291.7,287.9 C287.3,287.9 282,292.1 282.6,295.1 C283,297 281.8,298.7 277.4,303.1 C274,306.4 271.9,309.4 272.2,310.2 C272.5,310.9 274.2,312.3 276.1,313.2 C280.1,315.2 279.3,315.1 282.3,313.9 Z M245.7,263.1 C246.9,264.1 247.8,263.6 250.6,260.4 C252.5,258.2 255.8,254.4 258,252 C260.2,249.5 261.9,246.6 261.9,245.3 C261.9,243.9 263.5,241.1 265.7,238.6 C272.4,231.3 274.9,227.3 275.8,222.8 C276.3,220.4 277,217.6 277.4,216.7 C277.8,215.7 277.7,214.9 277.3,214.9 C275.7,214.9 264.2,226.4 263.5,228.7 C263.1,229.9 261.6,232 260.2,233.3 C258.6,234.8 257.5,237.1 257.2,239.8 C256.8,242.9 255.9,244.6 253.8,246.2 C252.2,247.3 250.9,248.9 250.9,249.6 C250.9,250.3 249.6,252.3 248.1,254.1 C243.6,259.4 239.5,266.7 243.1,263.1 C244,262.2 244.6,262.2 245.7,263.1 Z" id="Shape" fill="#141259"></path>
                <path d="M120.4,358.1 C120.3,357.9 120.3,356.9 120.6,355.8 C121.2,353.6 123.9,353.4 130.4,355 C136.8,356.6 135.2,358.4 127.3,358.4 C123.7,358.4 120.6,358.3 120.4,358.1 Z" id="Path" fill="#141259"></path>
                <path d="M141.6,342.2 C139.8,340.1 140.4,334.9 142.5,334.9 C143.3,334.9 143.9,334.2 143.9,333.4 C143.9,332.6 143,331.9 141.9,331.9 C139.5,331.9 137.1,328 138.9,326.9 C139.8,326.3 139.8,326 138.8,325.6 C138,325.3 140.4,325 144,325 C150.1,324.9 150.8,325.1 152.3,327.4 C153.5,329.2 153.7,330.3 152.9,331.2 C152.3,331.8 150.7,333.7 149.3,335.2 C147.4,337.5 147.1,338.4 148,339.5 C148.9,340.6 148.8,340.9 147.4,340.9 C146,340.9 145.9,341.2 146.9,342.4 C147.9,343.7 147.8,343.9 145.7,343.9 C144.3,343.9 142.5,343.1 141.6,342.2 Z" id="Path" fill="#141259"></path>
                <path d="M131.9,334.7 C129.5,333.7 126.6,329.6 127.6,328.5 C128.4,327.7 134.1,329.8 136,331.5 C140,335.1 137.5,336.9 131.9,334.7 Z" id="Path" fill="#141259"></path>
                <path d="M56.8,331.2 C55.5,329.6 55.6,329.5 57.2,330.8 C58.8,332.1 59.3,332.9 58.5,332.9 C58.3,332.9 57.5,332.1 56.8,331.2 Z" id="Path" fill="#141259"></path>
                <path d="M48.9,323.4 C47.3,321.7 46.9,320.5 47.6,319.8 C48.8,318.6 50.8,320.7 51.4,323.8 C51.9,326.5 51.8,326.4 48.9,323.4 Z" id="Path" fill="#141259"></path>
                <path d="M386,220.3 C386,219.2 386.3,218.9 386.6,219.7 C386.9,220.4 386.8,221.3 386.5,221.6 C386.2,222 385.9,221.4 386,220.3 Z" id="Path" fill="#000000"></path>
                <path d="M0.1,192.2 C-0.5,153.3 13.4,111.6 38,78.2 C40.3,75.2 42.2,72.9 42.4,73.1 C43,73.7 38.3,89.3 36.4,92.8 C34.3,97 34.8,101.1 37.7,102.4 C40.7,103.7 40.6,108.9 37.5,121.1 C35.4,129.2 35.2,131.3 36,136.4 C38.5,152 38.1,157.1 34,158.7 C33,159.1 31,160.8 29.6,162.5 C27.8,164.6 25.7,165.8 23.1,166.3 C20.6,166.7 17.8,168.2 14.9,170.9 C12.5,173.1 10.3,174.9 10,174.9 C9.7,174.9 9.3,177.4 9.3,180.4 C9.1,186.8 5.9,194.4 3,195.2 C1.6,195.5 0.9,196.7 0.6,199.5 C0.4,201.7 0.2,198.4 0.1,192.2 Z" id="Path" fill="#141259"></path>
                <path d="M367.1,196.7 C367.3,193.8 367.9,191.5 368.4,191.6 C370.6,192.1 370,201.9 367.8,201.9 C367.2,201.9 366.9,199.8 367.1,196.7 Z" id="Path" fill="#141259"></path>
                <path d="M385.1,185.9 C385.1,184.5 385.3,184 385.6,184.7 C385.8,185.3 385.8,186.5 385.6,187.2 C385.3,187.8 385.1,187.3 385.1,185.9 Z" id="Path" fill="#141259"></path>
                <path d="M386.1,176.9 C386,173 386.3,172 386.9,173.5 C387.3,174.6 387.4,177.1 386.9,179 C386.2,182.1 386.1,181.9 386.1,176.9 Z" id="Path" fill="#141259"></path>
                <path d="M289.9,129.7 C289.9,127.8 281.7,121.2 277.8,120 C274.8,119.1 273.8,118.1 272.9,115.4 C272.3,113.5 272.1,111.5 272.4,110.9 C273.1,109.8 270.8,105.7 268.2,103.1 C266.4,101.3 266.6,95.4 268.4,93.9 C271.3,91.5 274.5,94.3 280.5,104.6 C283.7,110 286.8,116 287.5,117.9 C288.2,119.8 289.3,121.4 290,121.4 C291.5,121.4 292.8,126.3 292.1,129.2 C291.6,131.1 289.9,131.6 289.9,129.7 Z" id="Path" fill="#141259"></path>
                <path d="M226.4,9.8 C219.4,7.9 206.2,6.5 197.9,6.8 C177.3,7.4 161.3,6.4 160.5,4.3 C159.8,2.5 161.1,2.2 174.5,0.8 C196.4,-1.4 229.9,1.4 242.2,6.6 C244.8,7.7 245.6,8.5 244.7,9 C244,9.5 242.6,9.6 241.6,9.3 C240.6,9 239.7,9.4 239.3,10.3 C238.5,12.3 235.4,12.2 226.4,9.8 Z" id="Path" fill="#141259"></path>
            </g>
        </g>
    </g>
</svg>